<svg version="1" xmlns="http://www.w3.org/2000/svg" width="346.667" height="346.667" viewBox="0 0 260.000000 260.000000"><path d="M107.3 2.9C80.7 7.7 57.9 19.3 39.1 38c-9.1 9-9.5 9.4-15.7 18.1-4.5 6.4-5.4 7.9-10.1 17.1C4 91.9 0 110.4.5 133c.2 8 .6 15.8 1 17.5 2.1 10.1 2.8 12.8 5.1 20 2.6 8 10.4 24.6 13 27.6.8.8 1.4 1.9 1.4 2.3 0 .8 4.6 7.2 7 9.7.8.9 3.7 4.2 6.3 7.3C45 229.8 62.8 242.1 81.5 250c3.9 1.7 14.4 5 17.6 5.5 1.8.3 3.5.8 3.9 1 1.8 1.1 15 2 28 1.9 10.6-.1 17.1-.6 24.3-2.2 10.3-2.2 31.7-9.8 31.7-11.3 0-.5.7-.9 1.5-.9 3.7 0 23.1-14.2 32-23.5 9.3-9.6 10.9-11.6 16.7-20.4 7.2-10.9 15.3-30.5 18.3-44.6 3-14.4 2.6-42.4-.9-55-.2-.6-.6-2.4-1.1-4-2.9-11.7-12.9-33.4-18-39.2-.5-.6-2.1-2.8-3.5-4.8-3.5-5.1-19.4-21.5-20.8-21.5-.7 0-1.2-.4-1.2-.9 0-2.2-20.8-14.7-32-19.3-16.2-6.6-27.7-8.9-46-9.3-10.7-.3-17.1.1-24.7 1.4z"/></svg>